<mxfile host="app.diagrams.net" modified="2023-12-17T23:36:49.351Z" agent="Mozilla/5.0 (Windows NT 10.0; Win64; x64) AppleWebKit/537.36 (KHTML, like Gecko) Chrome/120.0.0.0 Safari/537.36" etag="dIcYuEdZV2LBtggIKnQ-" version="22.1.11" type="device">
  <diagram name="Page-1" id="w2zEcCq6rjr5m_FsKOra">
    <mxGraphModel dx="1406" dy="583" grid="1" gridSize="10" guides="1" tooltips="1" connect="1" arrows="1" fold="1" page="1" pageScale="1" pageWidth="1169" pageHeight="827" math="0" shadow="0">
      <root>
        <mxCell id="0" />
        <mxCell id="1" parent="0" />
        <mxCell id="W9biqpnuEtXCoY6pIqpa-1" value="r" style="rounded=0;whiteSpace=wrap;html=1;" parent="1" vertex="1">
          <mxGeometry x="245" y="140" width="350" height="40" as="geometry" />
        </mxCell>
        <mxCell id="W9biqpnuEtXCoY6pIqpa-3" value="#Gara" style="text;html=1;strokeColor=none;fillColor=none;align=center;verticalAlign=middle;whiteSpace=wrap;rounded=0;fontStyle=4" parent="1" vertex="1">
          <mxGeometry x="239" y="145" width="60" height="30" as="geometry" />
        </mxCell>
        <mxCell id="W9biqpnuEtXCoY6pIqpa-4" value="Vettura" style="text;html=1;strokeColor=none;fillColor=none;align=center;verticalAlign=middle;whiteSpace=wrap;rounded=0;" parent="1" vertex="1">
          <mxGeometry x="242" y="110" width="60" height="30" as="geometry" />
        </mxCell>
        <mxCell id="W9biqpnuEtXCoY6pIqpa-5" value="Modello" style="text;html=1;strokeColor=none;fillColor=none;align=center;verticalAlign=middle;whiteSpace=wrap;rounded=0;" parent="1" vertex="1">
          <mxGeometry x="295" y="145" width="60" height="30" as="geometry" />
        </mxCell>
        <mxCell id="W9biqpnuEtXCoY6pIqpa-6" value="Data_acquisto" style="text;html=1;strokeColor=none;fillColor=none;align=center;verticalAlign=middle;whiteSpace=wrap;rounded=0;" parent="1" vertex="1">
          <mxGeometry x="365" y="145" width="60" height="30" as="geometry" />
        </mxCell>
        <mxCell id="W9biqpnuEtXCoY6pIqpa-8" value="Prezzo" style="text;html=1;strokeColor=none;fillColor=none;align=center;verticalAlign=middle;whiteSpace=wrap;rounded=0;" parent="1" vertex="1">
          <mxGeometry x="435" y="145" width="60" height="30" as="geometry" />
        </mxCell>
        <mxCell id="W9biqpnuEtXCoY6pIqpa-9" value="Nome_scuderia~" style="text;html=1;strokeColor=none;fillColor=none;align=center;verticalAlign=middle;whiteSpace=wrap;rounded=0;" parent="1" vertex="1">
          <mxGeometry x="515" y="145" width="60" height="30" as="geometry" />
        </mxCell>
        <mxCell id="W9biqpnuEtXCoY6pIqpa-13" value="" style="endArrow=none;html=1;rounded=0;exitX=0.143;exitY=0.998;exitDx=0;exitDy=0;exitPerimeter=0;" parent="1" source="W9biqpnuEtXCoY6pIqpa-1" edge="1">
          <mxGeometry width="50" height="50" relative="1" as="geometry">
            <mxPoint x="295" y="160" as="sourcePoint" />
            <mxPoint x="295" y="140" as="targetPoint" />
          </mxGeometry>
        </mxCell>
        <mxCell id="W9biqpnuEtXCoY6pIqpa-14" value="" style="endArrow=none;html=1;rounded=0;exitX=0.143;exitY=0.998;exitDx=0;exitDy=0;exitPerimeter=0;" parent="1" edge="1">
          <mxGeometry width="50" height="50" relative="1" as="geometry">
            <mxPoint x="352" y="180" as="sourcePoint" />
            <mxPoint x="352" y="140" as="targetPoint" />
          </mxGeometry>
        </mxCell>
        <mxCell id="W9biqpnuEtXCoY6pIqpa-15" value="" style="endArrow=none;html=1;rounded=0;exitX=0.143;exitY=0.998;exitDx=0;exitDy=0;exitPerimeter=0;" parent="1" edge="1">
          <mxGeometry width="50" height="50" relative="1" as="geometry">
            <mxPoint x="439" y="180" as="sourcePoint" />
            <mxPoint x="439" y="140" as="targetPoint" />
          </mxGeometry>
        </mxCell>
        <mxCell id="W9biqpnuEtXCoY6pIqpa-16" value="" style="endArrow=none;html=1;rounded=0;exitX=0.143;exitY=0.998;exitDx=0;exitDy=0;exitPerimeter=0;" parent="1" edge="1">
          <mxGeometry width="50" height="50" relative="1" as="geometry">
            <mxPoint x="491" y="180" as="sourcePoint" />
            <mxPoint x="491" y="140" as="targetPoint" />
          </mxGeometry>
        </mxCell>
        <mxCell id="W9biqpnuEtXCoY6pIqpa-17" value="" style="rounded=0;whiteSpace=wrap;html=1;" parent="1" vertex="1">
          <mxGeometry x="245" y="216" width="350" height="40" as="geometry" />
        </mxCell>
        <mxCell id="W9biqpnuEtXCoY6pIqpa-18" value="Nome" style="text;html=1;strokeColor=none;fillColor=none;align=center;verticalAlign=middle;whiteSpace=wrap;rounded=0;fontStyle=4" parent="1" vertex="1">
          <mxGeometry x="240" y="221" width="59" height="30" as="geometry" />
        </mxCell>
        <mxCell id="W9biqpnuEtXCoY6pIqpa-19" value="Gara" style="text;html=1;strokeColor=none;fillColor=none;align=center;verticalAlign=middle;whiteSpace=wrap;rounded=0;" parent="1" vertex="1">
          <mxGeometry x="235" y="191" width="60" height="30" as="geometry" />
        </mxCell>
        <mxCell id="W9biqpnuEtXCoY6pIqpa-20" value="Data" style="text;html=1;strokeColor=none;fillColor=none;align=center;verticalAlign=middle;whiteSpace=wrap;rounded=0;" parent="1" vertex="1">
          <mxGeometry x="295" y="221" width="60" height="30" as="geometry" />
        </mxCell>
        <mxCell id="W9biqpnuEtXCoY6pIqpa-21" value="DurataH" style="text;html=1;strokeColor=none;fillColor=none;align=center;verticalAlign=middle;whiteSpace=wrap;rounded=0;" parent="1" vertex="1">
          <mxGeometry x="365" y="221" width="60" height="30" as="geometry" />
        </mxCell>
        <mxCell id="W9biqpnuEtXCoY6pIqpa-22" value="Tipo" style="text;html=1;strokeColor=none;fillColor=none;align=center;verticalAlign=middle;whiteSpace=wrap;rounded=0;" parent="1" vertex="1">
          <mxGeometry x="435" y="221" width="60" height="30" as="geometry" />
        </mxCell>
        <mxCell id="W9biqpnuEtXCoY6pIqpa-23" value="~Nome_circuito" style="text;html=1;strokeColor=none;fillColor=none;align=center;verticalAlign=middle;whiteSpace=wrap;rounded=0;" parent="1" vertex="1">
          <mxGeometry x="507.5" y="221" width="70" height="30" as="geometry" />
        </mxCell>
        <mxCell id="W9biqpnuEtXCoY6pIqpa-24" value="" style="endArrow=none;html=1;rounded=0;exitX=0.143;exitY=0.998;exitDx=0;exitDy=0;exitPerimeter=0;" parent="1" source="W9biqpnuEtXCoY6pIqpa-17" edge="1">
          <mxGeometry width="50" height="50" relative="1" as="geometry">
            <mxPoint x="295" y="236" as="sourcePoint" />
            <mxPoint x="295" y="216" as="targetPoint" />
          </mxGeometry>
        </mxCell>
        <mxCell id="W9biqpnuEtXCoY6pIqpa-25" value="" style="endArrow=none;html=1;rounded=0;exitX=0.143;exitY=0.998;exitDx=0;exitDy=0;exitPerimeter=0;" parent="1" edge="1">
          <mxGeometry width="50" height="50" relative="1" as="geometry">
            <mxPoint x="352" y="256" as="sourcePoint" />
            <mxPoint x="352" y="216" as="targetPoint" />
          </mxGeometry>
        </mxCell>
        <mxCell id="W9biqpnuEtXCoY6pIqpa-26" value="" style="endArrow=none;html=1;rounded=0;exitX=0.143;exitY=0.998;exitDx=0;exitDy=0;exitPerimeter=0;" parent="1" edge="1">
          <mxGeometry width="50" height="50" relative="1" as="geometry">
            <mxPoint x="439" y="256" as="sourcePoint" />
            <mxPoint x="439" y="216" as="targetPoint" />
          </mxGeometry>
        </mxCell>
        <mxCell id="W9biqpnuEtXCoY6pIqpa-27" value="" style="endArrow=none;html=1;rounded=0;exitX=0.143;exitY=0.998;exitDx=0;exitDy=0;exitPerimeter=0;" parent="1" edge="1">
          <mxGeometry width="50" height="50" relative="1" as="geometry">
            <mxPoint x="491" y="256" as="sourcePoint" />
            <mxPoint x="491" y="216" as="targetPoint" />
          </mxGeometry>
        </mxCell>
        <mxCell id="W9biqpnuEtXCoY6pIqpa-28" value="" style="rounded=0;whiteSpace=wrap;html=1;" parent="1" vertex="1">
          <mxGeometry x="245" y="290" width="250" height="40" as="geometry" />
        </mxCell>
        <mxCell id="W9biqpnuEtXCoY6pIqpa-29" value="Nome" style="text;html=1;strokeColor=none;fillColor=none;align=center;verticalAlign=middle;whiteSpace=wrap;rounded=0;fontStyle=4" parent="1" vertex="1">
          <mxGeometry x="242" y="295" width="54" height="30" as="geometry" />
        </mxCell>
        <mxCell id="W9biqpnuEtXCoY6pIqpa-30" value="Paese" style="text;html=1;strokeColor=none;fillColor=none;align=center;verticalAlign=middle;whiteSpace=wrap;rounded=0;" parent="1" vertex="1">
          <mxGeometry x="295" y="295" width="60" height="30" as="geometry" />
        </mxCell>
        <mxCell id="W9biqpnuEtXCoY6pIqpa-31" value="Lunghezza&lt;span style=&quot;white-space: pre;&quot;&gt;&#x9;&lt;/span&gt;" style="text;html=1;strokeColor=none;fillColor=none;align=center;verticalAlign=middle;whiteSpace=wrap;rounded=0;" parent="1" vertex="1">
          <mxGeometry x="365" y="295" width="60" height="30" as="geometry" />
        </mxCell>
        <mxCell id="W9biqpnuEtXCoY6pIqpa-32" value="#Curve" style="text;html=1;strokeColor=none;fillColor=none;align=center;verticalAlign=middle;whiteSpace=wrap;rounded=0;" parent="1" vertex="1">
          <mxGeometry x="435" y="295" width="60" height="30" as="geometry" />
        </mxCell>
        <mxCell id="W9biqpnuEtXCoY6pIqpa-34" value="" style="endArrow=none;html=1;rounded=0;" parent="1" edge="1">
          <mxGeometry width="50" height="50" relative="1" as="geometry">
            <mxPoint x="295" y="330" as="sourcePoint" />
            <mxPoint x="295" y="290" as="targetPoint" />
          </mxGeometry>
        </mxCell>
        <mxCell id="W9biqpnuEtXCoY6pIqpa-35" value="" style="endArrow=none;html=1;rounded=0;exitX=0.143;exitY=0.998;exitDx=0;exitDy=0;exitPerimeter=0;" parent="1" edge="1">
          <mxGeometry width="50" height="50" relative="1" as="geometry">
            <mxPoint x="352" y="330" as="sourcePoint" />
            <mxPoint x="352" y="290" as="targetPoint" />
          </mxGeometry>
        </mxCell>
        <mxCell id="W9biqpnuEtXCoY6pIqpa-36" value="" style="endArrow=none;html=1;rounded=0;exitX=0.143;exitY=0.998;exitDx=0;exitDy=0;exitPerimeter=0;" parent="1" edge="1">
          <mxGeometry width="50" height="50" relative="1" as="geometry">
            <mxPoint x="439" y="330" as="sourcePoint" />
            <mxPoint x="439" y="290" as="targetPoint" />
          </mxGeometry>
        </mxCell>
        <mxCell id="W9biqpnuEtXCoY6pIqpa-38" value="Circuito" style="text;html=1;strokeColor=none;fillColor=none;align=center;verticalAlign=middle;whiteSpace=wrap;rounded=0;" parent="1" vertex="1">
          <mxGeometry x="235" y="260" width="60" height="30" as="geometry" />
        </mxCell>
        <mxCell id="W9biqpnuEtXCoY6pIqpa-48" value="" style="rounded=0;whiteSpace=wrap;html=1;" parent="1" vertex="1">
          <mxGeometry x="246" y="365" width="269" height="40" as="geometry" />
        </mxCell>
        <mxCell id="W9biqpnuEtXCoY6pIqpa-49" value="Ragione Sociale" style="text;html=1;strokeColor=none;fillColor=none;align=center;verticalAlign=middle;whiteSpace=wrap;rounded=0;fontStyle=4" parent="1" vertex="1">
          <mxGeometry x="240" y="370" width="60" height="30" as="geometry" />
        </mxCell>
        <mxCell id="W9biqpnuEtXCoY6pIqpa-50" value="Nome&lt;span style=&quot;white-space: pre;&quot;&gt;&#x9;&lt;/span&gt;" style="text;html=1;strokeColor=none;fillColor=none;align=center;verticalAlign=middle;whiteSpace=wrap;rounded=0;" parent="1" vertex="1">
          <mxGeometry x="296" y="370" width="60" height="30" as="geometry" />
        </mxCell>
        <mxCell id="W9biqpnuEtXCoY6pIqpa-51" value="Sede" style="text;html=1;strokeColor=none;fillColor=none;align=center;verticalAlign=middle;whiteSpace=wrap;rounded=0;" parent="1" vertex="1">
          <mxGeometry x="345" y="370" width="60" height="30" as="geometry" />
        </mxCell>
        <mxCell id="W9biqpnuEtXCoY6pIqpa-52" value="#Componenti_forniti" style="text;html=1;strokeColor=none;fillColor=none;align=center;verticalAlign=middle;whiteSpace=wrap;rounded=0;" parent="1" vertex="1">
          <mxGeometry x="425" y="370" width="60" height="30" as="geometry" />
        </mxCell>
        <mxCell id="W9biqpnuEtXCoY6pIqpa-53" value="" style="endArrow=none;html=1;rounded=0;" parent="1" edge="1">
          <mxGeometry width="50" height="50" relative="1" as="geometry">
            <mxPoint x="296" y="405" as="sourcePoint" />
            <mxPoint x="296" y="365" as="targetPoint" />
          </mxGeometry>
        </mxCell>
        <mxCell id="W9biqpnuEtXCoY6pIqpa-54" value="" style="endArrow=none;html=1;rounded=0;exitX=0.143;exitY=0.998;exitDx=0;exitDy=0;exitPerimeter=0;" parent="1" edge="1">
          <mxGeometry width="50" height="50" relative="1" as="geometry">
            <mxPoint x="353" y="405" as="sourcePoint" />
            <mxPoint x="353" y="365" as="targetPoint" />
          </mxGeometry>
        </mxCell>
        <mxCell id="W9biqpnuEtXCoY6pIqpa-55" value="" style="endArrow=none;html=1;rounded=0;exitX=0.143;exitY=0.998;exitDx=0;exitDy=0;exitPerimeter=0;" parent="1" edge="1">
          <mxGeometry width="50" height="50" relative="1" as="geometry">
            <mxPoint x="398" y="405" as="sourcePoint" />
            <mxPoint x="398" y="365" as="targetPoint" />
          </mxGeometry>
        </mxCell>
        <mxCell id="W9biqpnuEtXCoY6pIqpa-56" value="Costruttore" style="text;html=1;strokeColor=none;fillColor=none;align=center;verticalAlign=middle;whiteSpace=wrap;rounded=0;" parent="1" vertex="1">
          <mxGeometry x="245" y="340" width="60" height="30" as="geometry" />
        </mxCell>
        <mxCell id="W9biqpnuEtXCoY6pIqpa-57" value="" style="rounded=0;whiteSpace=wrap;html=1;" parent="1" vertex="1">
          <mxGeometry x="252" y="455" width="699" height="40" as="geometry" />
        </mxCell>
        <mxCell id="W9biqpnuEtXCoY6pIqpa-58" value="Codice" style="text;html=1;strokeColor=none;fillColor=none;align=center;verticalAlign=middle;whiteSpace=wrap;rounded=0;fontStyle=4" parent="1" vertex="1">
          <mxGeometry x="246" y="460" width="60" height="30" as="geometry" />
        </mxCell>
        <mxCell id="W9biqpnuEtXCoY6pIqpa-59" value="Costo&lt;span style=&quot;white-space: pre;&quot;&gt;&#x9;&lt;/span&gt;&lt;span style=&quot;white-space: pre;&quot;&gt;&#x9;&lt;/span&gt;" style="text;html=1;strokeColor=none;fillColor=none;align=center;verticalAlign=middle;whiteSpace=wrap;rounded=0;" parent="1" vertex="1">
          <mxGeometry x="302" y="460" width="60" height="30" as="geometry" />
        </mxCell>
        <mxCell id="W9biqpnuEtXCoY6pIqpa-60" value="Tipo" style="text;html=1;strokeColor=none;fillColor=none;align=center;verticalAlign=middle;whiteSpace=wrap;rounded=0;" parent="1" vertex="1">
          <mxGeometry x="351" y="460" width="60" height="30" as="geometry" />
        </mxCell>
        <mxCell id="W9biqpnuEtXCoY6pIqpa-61" value="Cilindrata&lt;br&gt;_motore*" style="text;html=1;strokeColor=none;fillColor=none;align=center;verticalAlign=middle;whiteSpace=wrap;rounded=0;" parent="1" vertex="1">
          <mxGeometry x="407" y="460" width="60" height="30" as="geometry" />
        </mxCell>
        <mxCell id="W9biqpnuEtXCoY6pIqpa-62" value="" style="endArrow=none;html=1;rounded=0;" parent="1" edge="1">
          <mxGeometry width="50" height="50" relative="1" as="geometry">
            <mxPoint x="302" y="495" as="sourcePoint" />
            <mxPoint x="302" y="455" as="targetPoint" />
          </mxGeometry>
        </mxCell>
        <mxCell id="W9biqpnuEtXCoY6pIqpa-63" value="" style="endArrow=none;html=1;rounded=0;exitX=0.143;exitY=0.998;exitDx=0;exitDy=0;exitPerimeter=0;" parent="1" edge="1">
          <mxGeometry width="50" height="50" relative="1" as="geometry">
            <mxPoint x="359" y="495" as="sourcePoint" />
            <mxPoint x="359" y="455" as="targetPoint" />
          </mxGeometry>
        </mxCell>
        <mxCell id="W9biqpnuEtXCoY6pIqpa-64" value="" style="endArrow=none;html=1;rounded=0;exitX=0.143;exitY=0.998;exitDx=0;exitDy=0;exitPerimeter=0;" parent="1" edge="1">
          <mxGeometry width="50" height="50" relative="1" as="geometry">
            <mxPoint x="404" y="495" as="sourcePoint" />
            <mxPoint x="404" y="455" as="targetPoint" />
          </mxGeometry>
        </mxCell>
        <mxCell id="W9biqpnuEtXCoY6pIqpa-65" value="Componente" style="text;html=1;strokeColor=none;fillColor=none;align=center;verticalAlign=middle;whiteSpace=wrap;rounded=0;" parent="1" vertex="1">
          <mxGeometry x="255" y="430" width="60" height="30" as="geometry" />
        </mxCell>
        <mxCell id="W9biqpnuEtXCoY6pIqpa-66" value="#Cilindri&lt;br&gt;_motore*" style="text;html=1;strokeColor=none;fillColor=none;align=center;verticalAlign=middle;whiteSpace=wrap;rounded=0;" parent="1" vertex="1">
          <mxGeometry x="471" y="460" width="60" height="30" as="geometry" />
        </mxCell>
        <mxCell id="W9biqpnuEtXCoY6pIqpa-67" value="Tipo&lt;br&gt;_motore*" style="text;html=1;strokeColor=none;fillColor=none;align=center;verticalAlign=middle;whiteSpace=wrap;rounded=0;" parent="1" vertex="1">
          <mxGeometry x="528" y="460" width="60" height="30" as="geometry" />
        </mxCell>
        <mxCell id="W9biqpnuEtXCoY6pIqpa-68" value="Materiale&lt;br&gt;_telaio*" style="text;html=1;strokeColor=none;fillColor=none;align=center;verticalAlign=middle;whiteSpace=wrap;rounded=0;" parent="1" vertex="1">
          <mxGeometry x="591" y="460" width="60" height="30" as="geometry" />
        </mxCell>
        <mxCell id="W9biqpnuEtXCoY6pIqpa-69" value="Peso&lt;br&gt;_telaio*" style="text;html=1;strokeColor=none;fillColor=none;align=center;verticalAlign=middle;whiteSpace=wrap;rounded=0;" parent="1" vertex="1">
          <mxGeometry x="647" y="460" width="60" height="30" as="geometry" />
        </mxCell>
        <mxCell id="W9biqpnuEtXCoY6pIqpa-70" value="#Marce&lt;br&gt;_cambio*" style="text;html=1;strokeColor=none;fillColor=none;align=center;verticalAlign=middle;whiteSpace=wrap;rounded=0;" parent="1" vertex="1">
          <mxGeometry x="711" y="460" width="60" height="30" as="geometry" />
        </mxCell>
        <mxCell id="W9biqpnuEtXCoY6pIqpa-71" value="Ragione&lt;br&gt;_sociale_costruttore~" style="text;html=1;strokeColor=none;fillColor=none;align=left;verticalAlign=middle;whiteSpace=wrap;rounded=0;" parent="1" vertex="1">
          <mxGeometry x="771" y="470" width="70" height="10" as="geometry" />
        </mxCell>
        <mxCell id="W9biqpnuEtXCoY6pIqpa-72" value="#Gara&lt;br&gt;_vettura~" style="text;html=1;strokeColor=none;fillColor=none;align=center;verticalAlign=middle;whiteSpace=wrap;rounded=0;" parent="1" vertex="1">
          <mxGeometry x="891" y="460" width="60" height="30" as="geometry" />
        </mxCell>
        <mxCell id="W9biqpnuEtXCoY6pIqpa-75" value="" style="endArrow=none;html=1;rounded=0;exitX=0.143;exitY=0.998;exitDx=0;exitDy=0;exitPerimeter=0;" parent="1" edge="1">
          <mxGeometry width="50" height="50" relative="1" as="geometry">
            <mxPoint x="471" y="495" as="sourcePoint" />
            <mxPoint x="471" y="455" as="targetPoint" />
          </mxGeometry>
        </mxCell>
        <mxCell id="W9biqpnuEtXCoY6pIqpa-79" value="" style="endArrow=none;html=1;rounded=0;exitX=0.143;exitY=0.998;exitDx=0;exitDy=0;exitPerimeter=0;" parent="1" edge="1">
          <mxGeometry width="50" height="50" relative="1" as="geometry">
            <mxPoint x="529" y="495" as="sourcePoint" />
            <mxPoint x="529" y="455" as="targetPoint" />
          </mxGeometry>
        </mxCell>
        <mxCell id="W9biqpnuEtXCoY6pIqpa-80" value="" style="endArrow=none;html=1;rounded=0;exitX=0.143;exitY=0.998;exitDx=0;exitDy=0;exitPerimeter=0;" parent="1" edge="1">
          <mxGeometry width="50" height="50" relative="1" as="geometry">
            <mxPoint x="588" y="495" as="sourcePoint" />
            <mxPoint x="588" y="455" as="targetPoint" />
          </mxGeometry>
        </mxCell>
        <mxCell id="W9biqpnuEtXCoY6pIqpa-81" value="" style="endArrow=none;html=1;rounded=0;exitX=0.143;exitY=0.998;exitDx=0;exitDy=0;exitPerimeter=0;" parent="1" edge="1">
          <mxGeometry width="50" height="50" relative="1" as="geometry">
            <mxPoint x="652" y="495" as="sourcePoint" />
            <mxPoint x="652" y="455" as="targetPoint" />
          </mxGeometry>
        </mxCell>
        <mxCell id="W9biqpnuEtXCoY6pIqpa-82" value="" style="endArrow=none;html=1;rounded=0;exitX=0.143;exitY=0.998;exitDx=0;exitDy=0;exitPerimeter=0;" parent="1" edge="1">
          <mxGeometry width="50" height="50" relative="1" as="geometry">
            <mxPoint x="705" y="495" as="sourcePoint" />
            <mxPoint x="705" y="455" as="targetPoint" />
          </mxGeometry>
        </mxCell>
        <mxCell id="W9biqpnuEtXCoY6pIqpa-83" value="" style="endArrow=none;html=1;rounded=0;exitX=0.143;exitY=0.998;exitDx=0;exitDy=0;exitPerimeter=0;" parent="1" edge="1">
          <mxGeometry width="50" height="50" relative="1" as="geometry">
            <mxPoint x="768" y="495" as="sourcePoint" />
            <mxPoint x="768" y="455" as="targetPoint" />
          </mxGeometry>
        </mxCell>
        <mxCell id="W9biqpnuEtXCoY6pIqpa-84" value="" style="endArrow=none;html=1;rounded=0;exitX=0.143;exitY=0.998;exitDx=0;exitDy=0;exitPerimeter=0;" parent="1" edge="1">
          <mxGeometry width="50" height="50" relative="1" as="geometry">
            <mxPoint x="892" y="495" as="sourcePoint" />
            <mxPoint x="892" y="455" as="targetPoint" />
          </mxGeometry>
        </mxCell>
        <mxCell id="W9biqpnuEtXCoY6pIqpa-85" value="" style="rounded=0;whiteSpace=wrap;html=1;" parent="1" vertex="1">
          <mxGeometry x="252" y="550" width="106" height="40" as="geometry" />
        </mxCell>
        <mxCell id="W9biqpnuEtXCoY6pIqpa-86" value="Nome" style="text;html=1;strokeColor=none;fillColor=none;align=center;verticalAlign=middle;whiteSpace=wrap;rounded=0;fontStyle=4" parent="1" vertex="1">
          <mxGeometry x="248" y="555" width="58" height="30" as="geometry" />
        </mxCell>
        <mxCell id="W9biqpnuEtXCoY6pIqpa-87" value="Paese" style="text;html=1;strokeColor=none;fillColor=none;align=center;verticalAlign=middle;whiteSpace=wrap;rounded=0;" parent="1" vertex="1">
          <mxGeometry x="302" y="555" width="60" height="30" as="geometry" />
        </mxCell>
        <mxCell id="W9biqpnuEtXCoY6pIqpa-90" value="" style="endArrow=none;html=1;rounded=0;" parent="1" edge="1">
          <mxGeometry width="50" height="50" relative="1" as="geometry">
            <mxPoint x="302" y="590" as="sourcePoint" />
            <mxPoint x="302" y="550" as="targetPoint" />
          </mxGeometry>
        </mxCell>
        <mxCell id="W9biqpnuEtXCoY6pIqpa-93" value="Scuderia" style="text;html=1;strokeColor=none;fillColor=none;align=center;verticalAlign=middle;whiteSpace=wrap;rounded=0;" parent="1" vertex="1">
          <mxGeometry x="242" y="520" width="60" height="30" as="geometry" />
        </mxCell>
        <mxCell id="W9biqpnuEtXCoY6pIqpa-95" value="" style="rounded=0;whiteSpace=wrap;html=1;" parent="1" vertex="1">
          <mxGeometry x="239" y="660" width="589" height="40" as="geometry" />
        </mxCell>
        <mxCell id="W9biqpnuEtXCoY6pIqpa-96" value="SSID" style="text;html=1;strokeColor=none;fillColor=none;align=center;verticalAlign=middle;whiteSpace=wrap;rounded=0;fontStyle=4" parent="1" vertex="1">
          <mxGeometry x="242" y="665" width="60" height="30" as="geometry" />
        </mxCell>
        <mxCell id="W9biqpnuEtXCoY6pIqpa-97" value="Nome" style="text;html=1;strokeColor=none;fillColor=none;align=center;verticalAlign=middle;whiteSpace=wrap;rounded=0;" parent="1" vertex="1">
          <mxGeometry x="292" y="665" width="60" height="30" as="geometry" />
        </mxCell>
        <mxCell id="W9biqpnuEtXCoY6pIqpa-98" value="Cognome" style="text;html=1;strokeColor=none;fillColor=none;align=center;verticalAlign=middle;whiteSpace=wrap;rounded=0;" parent="1" vertex="1">
          <mxGeometry x="347" y="665" width="60" height="30" as="geometry" />
        </mxCell>
        <mxCell id="W9biqpnuEtXCoY6pIqpa-99" value="DDN" style="text;html=1;strokeColor=none;fillColor=none;align=center;verticalAlign=middle;whiteSpace=wrap;rounded=0;" parent="1" vertex="1">
          <mxGeometry x="397" y="665" width="60" height="30" as="geometry" />
        </mxCell>
        <mxCell id="W9biqpnuEtXCoY6pIqpa-100" value="" style="endArrow=none;html=1;rounded=0;" parent="1" edge="1">
          <mxGeometry width="50" height="50" relative="1" as="geometry">
            <mxPoint x="298" y="700" as="sourcePoint" />
            <mxPoint x="298" y="660" as="targetPoint" />
          </mxGeometry>
        </mxCell>
        <mxCell id="W9biqpnuEtXCoY6pIqpa-101" value="" style="endArrow=none;html=1;rounded=0;exitX=0.143;exitY=0.998;exitDx=0;exitDy=0;exitPerimeter=0;" parent="1" edge="1">
          <mxGeometry width="50" height="50" relative="1" as="geometry">
            <mxPoint x="348" y="700" as="sourcePoint" />
            <mxPoint x="348" y="660" as="targetPoint" />
          </mxGeometry>
        </mxCell>
        <mxCell id="W9biqpnuEtXCoY6pIqpa-102" value="" style="endArrow=none;html=1;rounded=0;exitX=0.143;exitY=0.998;exitDx=0;exitDy=0;exitPerimeter=0;" parent="1" edge="1">
          <mxGeometry width="50" height="50" relative="1" as="geometry">
            <mxPoint x="407" y="700" as="sourcePoint" />
            <mxPoint x="407" y="660" as="targetPoint" />
          </mxGeometry>
        </mxCell>
        <mxCell id="W9biqpnuEtXCoY6pIqpa-103" value="Nazionalita&#39;" style="text;html=1;strokeColor=none;fillColor=none;align=center;verticalAlign=middle;whiteSpace=wrap;rounded=0;" parent="1" vertex="1">
          <mxGeometry x="453" y="665" width="60" height="30" as="geometry" />
        </mxCell>
        <mxCell id="W9biqpnuEtXCoY6pIqpa-104" value="Quota*" style="text;html=1;strokeColor=none;fillColor=none;align=center;verticalAlign=middle;whiteSpace=wrap;rounded=0;" parent="1" vertex="1">
          <mxGeometry x="507" y="665" width="60" height="30" as="geometry" />
        </mxCell>
        <mxCell id="W9biqpnuEtXCoY6pIqpa-105" value="#Licenze*" style="text;html=1;strokeColor=none;fillColor=none;align=center;verticalAlign=middle;whiteSpace=wrap;rounded=0;" parent="1" vertex="1">
          <mxGeometry x="557.5" y="665" width="60" height="30" as="geometry" />
        </mxCell>
        <mxCell id="W9biqpnuEtXCoY6pIqpa-106" value="Data&lt;br&gt;_prima_licenza*" style="text;html=1;strokeColor=none;fillColor=none;align=center;verticalAlign=middle;whiteSpace=wrap;rounded=0;" parent="1" vertex="1">
          <mxGeometry x="687" y="665" width="60" height="30" as="geometry" />
        </mxCell>
        <mxCell id="W9biqpnuEtXCoY6pIqpa-109" value="#Gara&lt;br&gt;_vettura~" style="text;html=1;strokeColor=none;fillColor=none;align=center;verticalAlign=middle;whiteSpace=wrap;rounded=0;" parent="1" vertex="1">
          <mxGeometry x="777" y="665" width="60" height="30" as="geometry" />
        </mxCell>
        <mxCell id="W9biqpnuEtXCoY6pIqpa-110" value="" style="endArrow=none;html=1;rounded=0;exitX=0.143;exitY=0.998;exitDx=0;exitDy=0;exitPerimeter=0;" parent="1" edge="1">
          <mxGeometry width="50" height="50" relative="1" as="geometry">
            <mxPoint x="446.58" y="700" as="sourcePoint" />
            <mxPoint x="446.58" y="660" as="targetPoint" />
          </mxGeometry>
        </mxCell>
        <mxCell id="W9biqpnuEtXCoY6pIqpa-111" value="" style="endArrow=none;html=1;rounded=0;exitX=0.143;exitY=0.998;exitDx=0;exitDy=0;exitPerimeter=0;" parent="1" edge="1">
          <mxGeometry width="50" height="50" relative="1" as="geometry">
            <mxPoint x="517" y="700" as="sourcePoint" />
            <mxPoint x="517" y="660" as="targetPoint" />
          </mxGeometry>
        </mxCell>
        <mxCell id="W9biqpnuEtXCoY6pIqpa-112" value="" style="endArrow=none;html=1;rounded=0;exitX=0.143;exitY=0.998;exitDx=0;exitDy=0;exitPerimeter=0;" parent="1" edge="1">
          <mxGeometry width="50" height="50" relative="1" as="geometry">
            <mxPoint x="557" y="700" as="sourcePoint" />
            <mxPoint x="557" y="660" as="targetPoint" />
          </mxGeometry>
        </mxCell>
        <mxCell id="W9biqpnuEtXCoY6pIqpa-113" value="" style="endArrow=none;html=1;rounded=0;exitX=0.143;exitY=0.998;exitDx=0;exitDy=0;exitPerimeter=0;" parent="1" edge="1">
          <mxGeometry width="50" height="50" relative="1" as="geometry">
            <mxPoint x="618.5" y="700" as="sourcePoint" />
            <mxPoint x="618.5" y="660" as="targetPoint" />
          </mxGeometry>
        </mxCell>
        <mxCell id="W9biqpnuEtXCoY6pIqpa-114" value="" style="endArrow=none;html=1;rounded=0;exitX=0.143;exitY=0.998;exitDx=0;exitDy=0;exitPerimeter=0;" parent="1" edge="1">
          <mxGeometry width="50" height="50" relative="1" as="geometry">
            <mxPoint x="671" y="700" as="sourcePoint" />
            <mxPoint x="671" y="660" as="targetPoint" />
          </mxGeometry>
        </mxCell>
        <mxCell id="W9biqpnuEtXCoY6pIqpa-115" value="" style="endArrow=none;html=1;rounded=0;exitX=0.143;exitY=0.998;exitDx=0;exitDy=0;exitPerimeter=0;" parent="1" edge="1">
          <mxGeometry width="50" height="50" relative="1" as="geometry">
            <mxPoint x="777" y="700" as="sourcePoint" />
            <mxPoint x="777" y="660" as="targetPoint" />
          </mxGeometry>
        </mxCell>
        <mxCell id="W9biqpnuEtXCoY6pIqpa-117" value="Pilota" style="text;html=1;strokeColor=none;fillColor=none;align=center;verticalAlign=middle;whiteSpace=wrap;rounded=0;" parent="1" vertex="1">
          <mxGeometry x="248" y="630" width="60" height="30" as="geometry" />
        </mxCell>
        <mxCell id="W9biqpnuEtXCoY6pIqpa-123" value="" style="endArrow=none;startArrow=classic;html=1;rounded=0;entryX=0.958;entryY=0.978;entryDx=0;entryDy=0;entryPerimeter=0;endFill=0;exitX=0.079;exitY=-0.06;exitDx=0;exitDy=0;exitPerimeter=0;" parent="1" source="W9biqpnuEtXCoY6pIqpa-1" target="W9biqpnuEtXCoY6pIqpa-95" edge="1">
          <mxGeometry width="50" height="50" relative="1" as="geometry">
            <mxPoint x="269" y="140" as="sourcePoint" />
            <mxPoint x="805.3489999999999" y="673.76" as="targetPoint" />
            <Array as="points">
              <mxPoint x="273" y="100" />
              <mxPoint x="375" y="100" />
              <mxPoint x="645" y="100" />
              <mxPoint x="645" y="320" />
              <mxPoint x="905" y="320" />
              <mxPoint x="965" y="320" />
              <mxPoint x="965" y="540" />
              <mxPoint x="965" y="720" />
              <mxPoint x="895" y="720" />
              <mxPoint x="803" y="720" />
            </Array>
          </mxGeometry>
        </mxCell>
        <mxCell id="W9biqpnuEtXCoY6pIqpa-134" value="" style="endArrow=classic;html=1;rounded=0;exitX=0.814;exitY=-0.044;exitDx=0;exitDy=0;exitPerimeter=0;entryX=0.086;entryY=0.979;entryDx=0;entryDy=0;entryPerimeter=0;" parent="1" source="W9biqpnuEtXCoY6pIqpa-57" target="W9biqpnuEtXCoY6pIqpa-48" edge="1">
          <mxGeometry width="50" height="50" relative="1" as="geometry">
            <mxPoint x="765" y="370" as="sourcePoint" />
            <mxPoint x="265" y="420" as="targetPoint" />
            <Array as="points">
              <mxPoint x="821" y="420" />
              <mxPoint x="269" y="420" />
            </Array>
          </mxGeometry>
        </mxCell>
        <mxCell id="W9biqpnuEtXCoY6pIqpa-135" value="" style="endArrow=classic;html=1;rounded=0;entryX=0.076;entryY=1.063;entryDx=0;entryDy=0;entryPerimeter=0;exitX=0.493;exitY=-0.162;exitDx=0;exitDy=0;exitPerimeter=0;" parent="1" source="W9biqpnuEtXCoY6pIqpa-72" target="W9biqpnuEtXCoY6pIqpa-1" edge="1">
          <mxGeometry width="50" height="50" relative="1" as="geometry">
            <mxPoint x="915" y="470" as="sourcePoint" />
            <mxPoint x="965" y="425" as="targetPoint" />
            <Array as="points">
              <mxPoint x="921" y="200" />
              <mxPoint x="615" y="200" />
              <mxPoint x="272" y="200" />
            </Array>
          </mxGeometry>
        </mxCell>
        <mxCell id="W9biqpnuEtXCoY6pIqpa-139" value="" style="endArrow=classic;html=1;rounded=0;" parent="1" target="W9biqpnuEtXCoY6pIqpa-86" edge="1">
          <mxGeometry width="50" height="50" relative="1" as="geometry">
            <mxPoint x="535" y="140" as="sourcePoint" />
            <mxPoint x="205" y="530" as="targetPoint" />
            <Array as="points">
              <mxPoint x="535" y="80" />
              <mxPoint x="205" y="80" />
              <mxPoint x="205" y="210" />
              <mxPoint x="205" y="340" />
              <mxPoint x="205" y="570" />
            </Array>
          </mxGeometry>
        </mxCell>
        <mxCell id="W9biqpnuEtXCoY6pIqpa-140" value="" style="endArrow=classic;html=1;rounded=0;exitX=0.886;exitY=0.988;exitDx=0;exitDy=0;exitPerimeter=0;entryX=0;entryY=0.5;entryDx=0;entryDy=0;" parent="1" source="W9biqpnuEtXCoY6pIqpa-17" target="W9biqpnuEtXCoY6pIqpa-29" edge="1">
          <mxGeometry width="50" height="50" relative="1" as="geometry">
            <mxPoint x="555" y="260" as="sourcePoint" />
            <mxPoint x="225" y="310" as="targetPoint" />
            <Array as="points">
              <mxPoint x="555" y="340" />
              <mxPoint x="415" y="340" />
              <mxPoint x="225" y="340" />
              <mxPoint x="225" y="310" />
            </Array>
          </mxGeometry>
        </mxCell>
        <mxCell id="W9biqpnuEtXCoY6pIqpa-142" value="" style="endArrow=classic;html=1;rounded=0;exitX=0.814;exitY=-0.044;exitDx=0;exitDy=0;exitPerimeter=0;entryX=0.086;entryY=0.979;entryDx=0;entryDy=0;entryPerimeter=0;" parent="1" edge="1">
          <mxGeometry width="50" height="50" relative="1" as="geometry">
            <mxPoint x="821" y="453.84" as="sourcePoint" />
            <mxPoint x="269" y="404.84" as="targetPoint" />
            <Array as="points">
              <mxPoint x="821" y="420.84" />
              <mxPoint x="269" y="420.84" />
            </Array>
          </mxGeometry>
        </mxCell>
        <mxCell id="W9biqpnuEtXCoY6pIqpa-160" value="" style="rounded=0;whiteSpace=wrap;html=1;" parent="1" vertex="1">
          <mxGeometry x="248" y="740" width="350" height="40" as="geometry" />
        </mxCell>
        <mxCell id="W9biqpnuEtXCoY6pIqpa-161" value="Nome_&lt;br&gt;Gara~" style="text;html=1;strokeColor=none;fillColor=none;align=center;verticalAlign=middle;whiteSpace=wrap;rounded=0;fontStyle=4" parent="1" vertex="1">
          <mxGeometry x="242" y="745" width="60" height="30" as="geometry" />
        </mxCell>
        <mxCell id="W9biqpnuEtXCoY6pIqpa-162" value="Partecipa" style="text;html=1;strokeColor=none;fillColor=none;align=center;verticalAlign=middle;whiteSpace=wrap;rounded=0;" parent="1" vertex="1">
          <mxGeometry x="244" y="710" width="60" height="30" as="geometry" />
        </mxCell>
        <mxCell id="W9biqpnuEtXCoY6pIqpa-163" value="&lt;u&gt;#gara vettura~&lt;/u&gt;" style="text;html=1;strokeColor=none;fillColor=none;align=center;verticalAlign=middle;whiteSpace=wrap;rounded=0;" parent="1" vertex="1">
          <mxGeometry x="298" y="745" width="60" height="30" as="geometry" />
        </mxCell>
        <mxCell id="W9biqpnuEtXCoY6pIqpa-164" value="Punti&lt;span style=&quot;white-space: pre;&quot;&gt;&#x9;&lt;/span&gt;" style="text;html=1;strokeColor=none;fillColor=none;align=center;verticalAlign=middle;whiteSpace=wrap;rounded=0;" parent="1" vertex="1">
          <mxGeometry x="368" y="745" width="60" height="30" as="geometry" />
        </mxCell>
        <mxCell id="W9biqpnuEtXCoY6pIqpa-165" value="Motivo Ritiro*" style="text;html=1;strokeColor=none;fillColor=none;align=center;verticalAlign=middle;whiteSpace=wrap;rounded=0;" parent="1" vertex="1">
          <mxGeometry x="438" y="745" width="60" height="30" as="geometry" />
        </mxCell>
        <mxCell id="W9biqpnuEtXCoY6pIqpa-166" value="Posizione" style="text;html=1;strokeColor=none;fillColor=none;align=center;verticalAlign=middle;whiteSpace=wrap;rounded=0;" parent="1" vertex="1">
          <mxGeometry x="510.5" y="745" width="70" height="30" as="geometry" />
        </mxCell>
        <mxCell id="W9biqpnuEtXCoY6pIqpa-167" value="" style="endArrow=none;html=1;rounded=0;exitX=0.143;exitY=0.998;exitDx=0;exitDy=0;exitPerimeter=0;" parent="1" source="W9biqpnuEtXCoY6pIqpa-160" edge="1">
          <mxGeometry width="50" height="50" relative="1" as="geometry">
            <mxPoint x="298" y="760" as="sourcePoint" />
            <mxPoint x="298" y="740" as="targetPoint" />
          </mxGeometry>
        </mxCell>
        <mxCell id="W9biqpnuEtXCoY6pIqpa-168" value="" style="endArrow=none;html=1;rounded=0;exitX=0.143;exitY=0.998;exitDx=0;exitDy=0;exitPerimeter=0;" parent="1" edge="1">
          <mxGeometry width="50" height="50" relative="1" as="geometry">
            <mxPoint x="355" y="780" as="sourcePoint" />
            <mxPoint x="355" y="740" as="targetPoint" />
          </mxGeometry>
        </mxCell>
        <mxCell id="W9biqpnuEtXCoY6pIqpa-169" value="" style="endArrow=none;html=1;rounded=0;exitX=0.143;exitY=0.998;exitDx=0;exitDy=0;exitPerimeter=0;" parent="1" edge="1">
          <mxGeometry width="50" height="50" relative="1" as="geometry">
            <mxPoint x="442" y="780" as="sourcePoint" />
            <mxPoint x="442" y="740" as="targetPoint" />
          </mxGeometry>
        </mxCell>
        <mxCell id="W9biqpnuEtXCoY6pIqpa-170" value="" style="endArrow=none;html=1;rounded=0;exitX=0.143;exitY=0.998;exitDx=0;exitDy=0;exitPerimeter=0;" parent="1" edge="1">
          <mxGeometry width="50" height="50" relative="1" as="geometry">
            <mxPoint x="494" y="780" as="sourcePoint" />
            <mxPoint x="494" y="740" as="targetPoint" />
          </mxGeometry>
        </mxCell>
        <mxCell id="W9biqpnuEtXCoY6pIqpa-171" value="" style="endArrow=classic;html=1;rounded=0;entryX=0.01;entryY=0.607;entryDx=0;entryDy=0;entryPerimeter=0;" parent="1" source="W9biqpnuEtXCoY6pIqpa-161" target="W9biqpnuEtXCoY6pIqpa-18" edge="1">
          <mxGeometry width="50" height="50" relative="1" as="geometry">
            <mxPoint x="150" y="760" as="sourcePoint" />
            <mxPoint x="200" y="710" as="targetPoint" />
            <Array as="points">
              <mxPoint x="190" y="760" />
              <mxPoint x="190" y="740" />
              <mxPoint x="190" y="239" />
            </Array>
          </mxGeometry>
        </mxCell>
        <mxCell id="W9biqpnuEtXCoY6pIqpa-174" value="" style="endArrow=classic;html=1;rounded=0;entryX=0;entryY=0.5;entryDx=0;entryDy=0;exitX=0.205;exitY=1.031;exitDx=0;exitDy=0;exitPerimeter=0;" parent="1" source="W9biqpnuEtXCoY6pIqpa-160" target="W9biqpnuEtXCoY6pIqpa-3" edge="1">
          <mxGeometry width="50" height="50" relative="1" as="geometry">
            <mxPoint x="330" y="800" as="sourcePoint" />
            <mxPoint x="326" y="820" as="targetPoint" />
            <Array as="points">
              <mxPoint x="320" y="800" />
              <mxPoint x="220" y="800" />
              <mxPoint x="220" y="480" />
              <mxPoint x="220" y="160" />
            </Array>
          </mxGeometry>
        </mxCell>
        <mxCell id="8gmFd8lrDti5qdE--T0s-1" value="Tipo" style="text;html=1;strokeColor=none;fillColor=none;align=center;verticalAlign=middle;whiteSpace=wrap;rounded=0;" vertex="1" parent="1">
          <mxGeometry x="617.5" y="665" width="60" height="30" as="geometry" />
        </mxCell>
      </root>
    </mxGraphModel>
  </diagram>
</mxfile>
